<?xml version="1.0" encoding="UTF-8" standalone="no"?>
<!-- Created with Inkscape (http://www.inkscape.org/) -->

<svg
   xmlns:dc="http://purl.org/dc/elements/1.1/"
   xmlns:cc="http://creativecommons.org/ns#"
   xmlns:rdf="http://www.w3.org/1999/02/22-rdf-syntax-ns#"
   xmlns:svg="http://www.w3.org/2000/svg"
   xmlns="http://www.w3.org/2000/svg"
   xmlns:sodipodi="http://sodipodi.sourceforge.net/DTD/sodipodi-0.dtd"
   xmlns:inkscape="http://www.inkscape.org/namespaces/inkscape"
   viewBox="0 0 230 185"
   id="svg5876"
   version="1.1"
   inkscape:version="0.48.4 r9939"
   sodipodi:docname="students_partner_work.svg"
   width="100%"
   height="100%">
  <defs
     id="defs5878" />
  <sodipodi:namedview
     id="base"
     pagecolor="#ffffff"
     bordercolor="#666666"
     borderopacity="1.0"
     inkscape:pageopacity="0.0"
     inkscape:pageshadow="2"
     inkscape:zoom="1.4"
     inkscape:cx="48.130445"
     inkscape:cy="27.105459"
     inkscape:document-units="px"
     inkscape:current-layer="layer1"
     showgrid="false"
     fit-margin-top="0"
     fit-margin-left="0"
     fit-margin-right="0"
     fit-margin-bottom="0"
     inkscape:window-width="917"
     inkscape:window-height="633"
     inkscape:window-x="216"
     inkscape:window-y="115"
     inkscape:window-maximized="0" />
  <metadata
     id="metadata5881">
    <rdf:RDF>
      <cc:Work
         rdf:about="">
        <dc:format>image/svg+xml</dc:format>
        <dc:type
           rdf:resource="http://purl.org/dc/dcmitype/StillImage" />
        <dc:title />
      </cc:Work>
    </rdf:RDF>
  </metadata>
  <g
     inkscape:label="Layer 1"
     inkscape:groupmode="layer"
     id="layer1"
     transform="translate(-178.90791,-308.76025)">
    <g
       transform="translate(-198.75191,-179.73017)"
       id="g5248"
       inkscape:transform-center-x="-54.548237"
       inkscape:transform-center-y="18.182746">
      <g
         id="g5097">
        <g
           id="g5092">
          <path
             sodipodi:nodetypes="ccccssc"
             inkscape:connector-curvature="0"
             d="m 213.14219,122.45993 c -1.51523,-20.70813 3.03045,-50.4061 3.03045,-50.4061 l 16.66752,-4.04061 28.28427,-2.020305 c 22.72844,1.010152 29.29443,-0.505076 30.80966,4.545686 1.51522,5.050763 14.14213,43.436559 14.14213,48.487319 0,5.05077 -3.53553,17.1726 -3.53553,17.1726"
             style="color:#000000;fill:#008000;stroke:#000000;stroke-width:2;stroke-linecap:round;stroke-linejoin:round;stroke-miterlimit:4;stroke-opacity:1;stroke-dasharray:none;stroke-dashoffset:1.5;marker:none;visibility:visible;display:inline;overflow:visible;enable-background:accumulate"
             transform="translate(279.77,497.08)"
             id="path3381" />
          <path
             transform="translate(279.77,497.08)"
             inkscape:connector-curvature="0"
             id="path3383"
             d="m 277.79195,92.256881 4.54569,24.748739"
             style="color:#000000;fill:none;stroke:#000000;stroke-width:2;stroke-linecap:round;stroke-linejoin:round;stroke-miterlimit:4;stroke-opacity:1;stroke-dasharray:none;stroke-dashoffset:1.5;marker:none;visibility:visible;display:inline;overflow:visible;enable-background:accumulate" />
          <path
             transform="translate(279.77,497.08)"
             inkscape:connector-curvature="0"
             id="path3385"
             d="m 225.76909,96.297491 1.51523,19.192899"
             style="color:#000000;fill:none;stroke:#000000;stroke-width:2;stroke-linecap:round;stroke-linejoin:round;stroke-miterlimit:4;stroke-opacity:1;stroke-dasharray:none;stroke-dashoffset:1.5;marker:none;visibility:visible;display:inline;overflow:visible;enable-background:accumulate" />
        </g>
        <g
           id="g3361">
          <path
             style="color:#000000;fill:#ffcb9f;fill-opacity:1;fill-rule:nonzero;stroke:#000000;stroke-width:2;stroke-linecap:round;stroke-linejoin:round;stroke-miterlimit:4;stroke-opacity:1;stroke-dasharray:none;stroke-dashoffset:1.5;marker:none;visibility:visible;display:inline;overflow:visible;enable-background:accumulate"
             d="m 540.6419,548.17317 -1.2627,19.44544 c 0,0 -10.10152,6.56599 -14.64721,6.56599 -4.54568,0 -9.09137,-8.5863 -9.09137,-8.5863"
             id="path3377"
             inkscape:connector-curvature="0"
             sodipodi:nodetypes="ccsc" />
          <path
             sodipodi:nodetypes="cssscccccc"
             transform="translate(279.77,497.08)"
             inkscape:connector-curvature="0"
             id="path3213"
             d="m 236.42856,11.987142 c -8.52066,4.163162 -14.6548,15.219642 -14.17705,29.63956 0.6709,20.249764 9.5785,26.891594 13.11403,26.891594 3.53554,0 16.96514,-0.709234 22.85099,-11.172954 2.27285,-4.04061 2.62998,-7.389236 2.62998,-7.389236 3.56091,0.884519 5.07614,-3.913705 5.07614,-3.913705 l 1.05082,-1.681457 0.88366,-18.44523 -8.57142,-11.428572 z"
             style="color:#000000;fill:#ffcb9f;fill-opacity:1;fill-rule:nonzero;stroke:#000000;stroke-width:2;stroke-linecap:round;stroke-linejoin:round;stroke-miterlimit:4;stroke-opacity:1;stroke-dasharray:none;stroke-dashoffset:1.5;marker:none;visibility:visible;display:inline;overflow:visible;enable-background:accumulate" />
          <path
             sodipodi:cx="313.92856"
             sodipodi:cy="452.36218"
             transform="matrix(0.42000283,0,0,0.46666904,377.39246,317.82661)"
             d="m 315.71427,452.36218 c 0,1.18347 -0.79949,2.14286 -1.78571,2.14286 -0.98622,0 -1.78572,-0.95939 -1.78572,-2.14286 0,-1.18346 0.7995,-2.14285 1.78572,-2.14285 0.98622,0 1.78571,0.95939 1.78571,2.14285 z"
             sodipodi:type="arc"
             style="fill:#000000;stroke:#000000;stroke-width:4.51748991;stroke-linecap:round;stroke-linejoin:round;stroke-dashoffset:1.5"
             sodipodi:ry="2.1428571"
             sodipodi:rx="1.7857143"
             id="path3360-4-7" />
          <path
             sodipodi:cx="313.92856"
             sodipodi:cy="452.36218"
             transform="matrix(0.42000283,0,0,0.46666904,389.98054,317.4666)"
             d="m 315.71427,452.36218 c 0,1.18347 -0.79949,2.14286 -1.78571,2.14286 -0.98622,0 -1.78572,-0.95939 -1.78572,-2.14286 0,-1.18346 0.7995,-2.14285 1.78572,-2.14285 0.98622,0 1.78571,0.95939 1.78571,2.14285 z"
             sodipodi:type="arc"
             style="fill:#000000;stroke:#000000;stroke-width:4.51748991;stroke-linecap:round;stroke-linejoin:round;stroke-dashoffset:1.5"
             sodipodi:ry="2.1428571"
             sodipodi:rx="1.7857143"
             id="path3376-0-5" />
          <path
             sodipodi:nodetypes="ccsc"
             transform="translate(279.77,497.08)"
             inkscape:connector-curvature="0"
             id="path3236"
             d="m 228.54702,55.638851 c 8.10134,-0.757614 12.37436,-2.002358 12.37436,-2.002358 1.51523,3.282994 -3.59449,5.322088 -5.17704,5.53789 -5.55584,0.757615 -7.19732,-3.535532 -7.19732,-3.535532 z"
             style="color:#000000;fill:#ffffff;fill-opacity:1;fill-rule:nonzero;stroke:#000000;stroke-width:2;stroke-linecap:round;stroke-linejoin:round;stroke-miterlimit:4;stroke-opacity:1;stroke-dasharray:none;stroke-dashoffset:1.5;marker:none;visibility:visible;display:inline;overflow:visible;enable-background:accumulate" />
          <path
             transform="translate(279.77,497.08)"
             inkscape:connector-curvature="0"
             id="path3255"
             d="m 232.85714,36.987143 c -3.57143,8.928571 -5.71428,7.857143 -3.57143,8.928571 2.14286,1.071429 5.35715,1.071429 5.35715,1.071429"
             style="color:#000000;fill:none;stroke:#000000;stroke-width:1.5;stroke-linecap:round;stroke-linejoin:round;stroke-miterlimit:4;stroke-opacity:1;stroke-dasharray:none;stroke-dashoffset:1.5;marker:none;visibility:visible;display:inline;overflow:visible;enable-background:accumulate" />
          <path
             sodipodi:nodetypes="cccccssccsssc"
             transform="translate(279.77,497.08)"
             inkscape:connector-curvature="0"
             id="path3275"
             d="M 223.49625,27.35458 C 226.27417,17.505593 241.679,17.253054 241.679,17.253054 l 17.9302,5.303301 c 0,0 -2.52538,-0.631345 0,0 0.75762,5.050763 0,13.131983 0,13.131983 0,0 0.25254,0 2.52539,-0.505076 2.27284,-0.505076 5.05076,2.525382 5.05076,5.808377 0,3.282996 -1.26269,4.924494 -1.26269,4.924494 l 3.91434,-3.409264 c 0,0 2.14658,-16.920057 0.12627,-22.980972 -2.0203,-6.060915 -13.8896,-13.6370587 -21.97082,-13.6370587 -8.08122,0 -21.55766,0.6833165 -23.99112,3.788072 -7.3236,9.3439107 -0.50508,17.6776697 -0.50508,17.6776697 z"
             style="color:#000000;fill:#432a16;fill-opacity:1;fill-rule:nonzero;stroke:#000000;stroke-width:2;stroke-linecap:round;stroke-linejoin:round;stroke-miterlimit:4;stroke-opacity:1;stroke-dasharray:none;stroke-dashoffset:1.5;marker:none;visibility:visible;display:inline;overflow:visible;enable-background:accumulate" />
        </g>
      </g>
      <g
         id="g5122">
        <path
           inkscape:connector-curvature="0"
           id="path2525-9"
           sodipodi:nodetypes="ccccc"
           style="fill:#ffffff;stroke:#000000;stroke-width:2;stroke-linecap:round;stroke-linejoin:round;stroke-dashoffset:1.5"
           d="m 385.24212,656.41004 1.32348,16.68 209.46271,-0.46 0.97054,-17.14 -211.75673,0.92 z" />
        <path
           inkscape:connector-curvature="0"
           id="path3374-3"
           sodipodi:nodetypes="ccccc"
           style="fill:#ffffff;stroke:#000000;stroke-width:2;stroke-linecap:round;stroke-linejoin:round;stroke-dashoffset:1.5"
           d="m 463.34253,614.66043 103.69446,-0.48531 29.66929,41.21985 -211.35372,0.94795 29.7262,-31.94008" />
        <path
           inkscape:connector-curvature="0"
           id="path2531-7"
           sodipodi:nodetypes="ccccc"
           style="fill:#ffffff;stroke:#000000;stroke-width:2;stroke-linecap:round;stroke-linejoin:round;stroke-dashoffset:1.5"
           d="m 480.82195,620.29989 -8.57,29.28 42.14,-0.71 -6.42,-29.29 -27.15,0.72 z" />
      </g>
      <g
         id="g5030">
        <path
           id="path3425"
           transform="translate(279.77,497.08)"
           style="color:#000000;fill:#ffcb9f;fill-opacity:1;fill-rule:nonzero;stroke:#000000;stroke-width:2;stroke-linecap:round;stroke-linejoin:round;stroke-miterlimit:4;stroke-opacity:1;stroke-dasharray:none;stroke-dashoffset:1.5;marker:none;visibility:visible;display:inline;overflow:visible;enable-background:accumulate"
           d="m 171.74105,131.13738 c 0.27873,1.05303 0.36629,0.9295 1.90619,2.15445 2.81093,0.73047 3.30928,-0.0226 5.5473,1.66069 1.28185,0.96413 2.09284,3.49715 3.19276,4.45101 0.65735,0.41904 3.42826,0.40683 4.34561,-0.69857 1.29011,0.7771 2.5725,0.5223 3.35637,0.33576 1.01579,-0.24173 1.19542,-0.71218 1.74675,-1.50321 0.96152,0.20288 1.58057,0.16509 1.987,-0.20261 0.68227,-0.61726 1.21441,-1.35847 1.40494,-1.92276 2.42124,1.46679 4.60144,3.07196 5.2313,2.75703 0.75761,-0.37881 1.83538,-1.33031 -0.0587,-2.97181 -1.45476,-1.26079 -4.61241,-7.89802 -6.95627,-10.31497 -0.19566,-1.90412 -3.62292,-1.91311 -5.76578,-2.89524 -6.40342,-2.93486 -12.58033,-3.14006 -12.58033,-3.14006 0,0 -2.22691,3.73603 -2.60572,6.64022 -0.3788,2.90419 -0.7296,4.91684 -0.7296,4.91684"
           inkscape:connector-curvature="0"
           sodipodi:nodetypes="ccsccscscsscscsc" />
        <g
           id="g5025">
          <path
             sodipodi:nodetypes="ccsscssccccssc"
             inkscape:connector-curvature="0"
             id="path3371"
             d="m 462.56844,614.02063 -1.2257,1.6452 c 0,0 -2.84739,-1.50228 -5.67576,-0.24092 -2.0484,0.91352 -5.18246,10.16437 -3.44363,15.25294 0.19512,0.57101 -0.59698,0.96551 -0.59698,0.96551 0,0 -43.64314,-9.65509 -45.66345,-9.65509 -2.0203,0 -6.56599,-7.07107 -6.56599,-11.61676 0,-4.54568 0,-7.07107 0,-7.07107 l 27.27412,-38.38579 c 0,0 1.26269,-1.51523 10.35407,-0.25254 l 30.63325,1.94634 c 8.5863,-1.01015 12.12183,-2.02031 13.13199,2.52538 1.01015,4.54569 4.54568,29.7995 7.07106,33.33503 2.52539,3.53554 7.48949,11.20359 7.48949,11.20359"
             style="color:#000000;fill:#ff2a2a;fill-opacity:1;fill-rule:nonzero;stroke:#000000;stroke-width:2;stroke-linecap:round;stroke-linejoin:round;stroke-miterlimit:4;stroke-opacity:1;stroke-dasharray:none;stroke-dashoffset:1.5;marker:none;visibility:visible;display:inline;overflow:visible;enable-background:accumulate" />
          <path
             transform="translate(279.77,497.08)"
             inkscape:connector-curvature="0"
             id="path3373"
             d="m 191.42391,116.50054 2.0203,-28.789345"
             style="color:#000000;fill:#ffffff;fill-opacity:1;fill-rule:nonzero;stroke:#000000;stroke-width:2;stroke-linecap:round;stroke-linejoin:round;stroke-miterlimit:4;stroke-opacity:1;stroke-dasharray:none;stroke-dashoffset:1.5;marker:none;visibility:visible;display:inline;overflow:visible;enable-background:accumulate" />
          <path
             inkscape:connector-curvature="0"
             id="path5019"
             d="m 429.19642,592.69385 -10.6066,15.65736 43.97862,5.66942"
             style="color:#000000;fill:#ff2a2a;fill-opacity:1;fill-rule:nonzero;stroke:#000000;stroke-width:2;stroke-linecap:round;stroke-linejoin:round;stroke-miterlimit:4;stroke-opacity:1;stroke-dasharray:none;stroke-dashoffset:1.5;marker:none;visibility:visible;display:inline;overflow:visible;enable-background:accumulate" />
        </g>
        <g
           id="g3352">
          <path
             id="path3375"
             style="color:#000000;fill:#ffcb9f;fill-opacity:1;fill-rule:nonzero;stroke:#000000;stroke-width:2;stroke-linecap:round;stroke-linejoin:round;stroke-miterlimit:4;stroke-opacity:1;stroke-dasharray:none;stroke-dashoffset:1.5;marker:none;visibility:visible;display:inline;overflow:visible;enable-background:accumulate"
             d="m 465.30939,566.55615 c 0,0 -5.80839,14.01587 -8.33377,14.52094 -2.52538,0.50508 -12.6269,-0.75761 -19.63823,-15.94951 l 4.56209,-9.12573"
             inkscape:connector-curvature="0"
             sodipodi:nodetypes="cscc" />
          <path
             d="m 483.09022,541.87781 c -2.85499,16.11419 -14.41999,25.61644 -23.98742,26.3514 -7.59716,-0.49206 -12.95927,-7.54735 -17.07755,-13.17292 -3.0776,-4.204 -2.40398,-3.69031 -3.809,-9.23462 -1.06209,-12.65472 -9.72235,-26.36417 1.91352,-31.65369 11.78839,-5.78916 26.80296,-8.94016 36.18456,0.38405 7.72636,7.37569 9.14725,16.80733 6.77589,27.32578 z"
             style="color:#000000;fill:#ffcb9f;fill-opacity:1;fill-rule:nonzero;stroke:#000000;stroke-width:2;stroke-linecap:round;stroke-linejoin:round;stroke-miterlimit:4;stroke-opacity:1;stroke-dasharray:none;stroke-dashoffset:1.5;marker:none;visibility:visible;display:inline;overflow:visible;enable-background:accumulate"
             sodipodi:nodetypes="ccscccc"
             id="path3358-6"
             inkscape:connector-curvature="0" />
          <path
             sodipodi:cx="313.92856"
             sodipodi:cy="452.36218"
             transform="matrix(0.16636486,0.10166629,-0.24334262,0.39820141,525.65637,323.44883)"
             d="m 315.71427,452.36218 c 0,1.18347 -0.79949,2.14286 -1.78571,2.14286 -0.98622,0 -1.78572,-0.95939 -1.78572,-2.14286 0,-1.18346 0.7995,-2.14285 1.78572,-2.14285 0.98622,0 1.78571,0.95939 1.78571,2.14285 z"
             sodipodi:type="arc"
             style="fill:#000000;stroke:#000000;stroke-width:6.63039494;stroke-linecap:round;stroke-linejoin:round;stroke-dashoffset:1.5"
             sodipodi:ry="2.1428571"
             sodipodi:rx="1.7857143"
             id="path3360-4" />
          <path
             sodipodi:cx="313.92856"
             sodipodi:cy="452.36218"
             transform="matrix(0.16636486,0.10166629,-0.24334262,0.39820141,536.22414,326.11928)"
             d="m 315.71427,452.36218 c 0,1.18347 -0.79949,2.14286 -1.78571,2.14286 -0.98622,0 -1.78572,-0.95939 -1.78572,-2.14286 0,-1.18346 0.7995,-2.14285 1.78572,-2.14285 0.98622,0 1.78571,0.95939 1.78571,2.14285 z"
             sodipodi:type="arc"
             style="fill:#000000;stroke:#000000;stroke-width:6.63039494;stroke-linecap:round;stroke-linejoin:round;stroke-dashoffset:1.5"
             sodipodi:ry="2.1428571"
             sodipodi:rx="1.7857143"
             id="path3376-0" />
          <path
             d="m 468.2739,548.45803 c 1.96143,0.89571 6.43,1.21429 5.84,-0.28 -0.95105,-5.36089 -0.77248,-7.50375 -0.77248,-7.50375"
             style="fill:none;stroke:#000000;stroke-width:1.5;stroke-linecap:round;stroke-linejoin:round;stroke-dashoffset:1.5"
             sodipodi:nodetypes="ccc"
             id="path3378-0"
             inkscape:connector-curvature="0" />
          <path
             sodipodi:nodetypes="ccssc"
             transform="translate(279.77,497.08)"
             inkscape:connector-curvature="0"
             id="path3168"
             d="m 182.32143,58.594285 c 8.57143,0.892858 10.17857,0.178572 10.17857,0.178572 0,0 0.0504,-0.19466 0,0 -0.82355,3.178023 -5.89286,5.714286 -7.14286,5.714286 -1.25,0 -3.03571,-5.892858 -3.03571,-5.892858 z"
             style="color:#000000;fill:#ffffff;fill-opacity:1;fill-rule:nonzero;stroke:#000000;stroke-width:2;stroke-linecap:round;stroke-linejoin:round;stroke-miterlimit:4;stroke-opacity:1;stroke-dasharray:none;stroke-dashoffset:1.5;marker:none;visibility:visible;display:inline;overflow:visible;enable-background:accumulate" />
          <path
             d="m 445.59758,534.38274 c 7.19,-1.34 17.99065,-6.47292 24.33225,-10.41885 7.25969,-4.51719 9.82368,-5.52341 11.2831,-3.32934 1.77647,2.67073 2.60574,6.22487 3.02571,11.68249 6.01189,-4.01938 4.36236,-15.87681 -4.16009,-23.51126 -8.67493,-7.77103 -24.35485,-11.24399 -32.99981,-6.50441 -14.83175,8.13147 -16.66233,16.4073 -28.99919,45.32003 5.35378,4.2253 18.46456,9.56796 24.09815,6.91544 -0.35335,-1.45297 -1.31759,-4.75333 -0.76762,-7.82488 -4.60516,1.26954 -3.94228,-12.36518 -2.87535,-13.3455 2.62376,-2.41078 4.96343,0.85239 7.06285,1.01628 z"
             style="color:#000000;fill:#6b2e00;fill-opacity:1;fill-rule:nonzero;stroke:#000000;stroke-width:2;stroke-linecap:round;stroke-linejoin:round;stroke-miterlimit:4;stroke-opacity:1;stroke-dasharray:none;stroke-dashoffset:1.5;marker:none;visibility:visible;display:inline;overflow:visible;enable-background:accumulate"
             sodipodi:nodetypes="csscsscccsc"
             id="path3362-3"
             inkscape:connector-curvature="0" />
        </g>
      </g>
    </g>
  </g>
</svg>
